{
	"asset":{
		"generator":"Khronos glTF Blender I/O v3.5.30",
		"version":"2.0"
	},
	"scene":0,
	"scenes":[
		{
			"name":"Scene",
			"nodes":[
				20
			]
		}
	],
	"nodes":[
		{
			"name":"Bottom of titanic",
			"rotation":[
				-0.70710688829422,
				0,
				0,
				0.7071066498756409
			],
			"translation":[
				44.65790557861328,
				24.327116012573242,
				31.883447647094727
			]
		},
		{
			"name":"Bottom of titanic001",
			"rotation":[
				-0.70710688829422,
				0,
				0,
				0.7071066498756409
			],
			"translation":[
				-42.01448059082031,
				24.327116012573242,
				-32.97176742553711
			]
		},
		{
			"name":"Bottom of titanic002",
			"rotation":[
				-0.70710688829422,
				0,
				0,
				0.7071066498756409
			],
			"translation":[
				42.81888198852539,
				24.327116012573242,
				-43.81153869628906
			]
		},
		{
			"name":"Bottom of titanic003",
			"rotation":[
				-0.70710688829422,
				0,
				0,
				0.7071066498756409
			],
			"translation":[
				-27.874664306640625,
				24.327116012573242,
				41.477081298828125
			]
		},
		{
			"name":"Bottom of titanic004",
			"rotation":[
				-0.24184468388557434,
				-0.6644630432128906,
				-0.6644631028175354,
				0.24184468388557434
			],
			"translation":[
				12.469038009643555,
				24.32699966430664,
				-9.911140441894531
			]
		},
		{
			"name":"Box001",
			"rotation":[
				0,
				0,
				-0.9413628578186035,
				0.3373960554599762
			],
			"scale":[
				1,
				1,
				1.3990260362625122
			],
			"translation":[
				12.690725326538086,
				10.05921745300293,
				-82.81803131103516
			]
		},
		{
			"name":"Box004",
			"rotation":[
				0,
				0,
				0.4558442533016205,
				0.8900595903396606
			],
			"translation":[
				-44.883174896240234,
				35.10179901123047,
				-82.81803894042969
			]
		},
		{
			"name":"Box005",
			"rotation":[
				0,
				0,
				-0.4046686291694641,
				0.9144634008407593
			],
			"translation":[
				44.8023796081543,
				46.82356262207031,
				-82.81803131103516
			]
		},
		{
			"name":"Box006",
			"rotation":[
				0,
				0,
				0.895765483379364,
				0.4445269703865051
			],
			"translation":[
				-29.994930267333984,
				-43.41606521606445,
				-82.81803131103516
			]
		},
		{
			"name":"Box007",
			"rotation":[
				0,
				0,
				-0.8834553360939026,
				0.4685153663158417
			],
			"translation":[
				46.7481575012207,
				-33.26551818847656,
				-82.81803131103516
			]
		},
		{
			"children":[
				5,
				6,
				7,
				8,
				9
			],
			"name":"Group001",
			"rotation":[
				-0.70710688829422,
				0,
				0,
				0.7071066498756409
			],
			"translation":[
				0.3346443176269531,
				107.14170837402344,
				0.7432528734207153
			]
		},
		{
			"name":"Object001",
			"rotation":[
				-0.23857508599758148,
				-0.6656439900398254,
				-0.6656439900398254,
				0.23857510089874268
			],
			"scale":[
				1,
				1,
				1.3990260362625122
			],
			"translation":[
				13.025369644165039,
				24.32367706298828,
				-9.315963745117188
			]
		},
		{
			"name":"Object003",
			"rotation":[
				-0.6293671727180481,
				0.3223305940628052,
				0.3223305940628052,
				0.6293671131134033
			],
			"translation":[
				-44.54853057861328,
				24.32367706298828,
				-34.35854721069336
			]
		},
		{
			"name":"Object005",
			"rotation":[
				-0.6466232538223267,
				-0.286143958568573,
				-0.286143958568573,
				0.6466232538223267
			],
			"translation":[
				45.13702392578125,
				24.32367706298828,
				-46.0803108215332
			]
		},
		{
			"name":"Object007",
			"rotation":[
				-0.3143279552459717,
				0.6334018707275391,
				0.6334018707275391,
				0.3143279552459717
			],
			"translation":[
				-29.66028594970703,
				24.32367706298828,
				44.15931701660156
			]
		},
		{
			"mesh":0,
			"name":"Object009_Shiny Metal_0",
			"translation":[
				0,
				-3.3826474918896565e-06,
				0
			]
		},
		{
			"children":[
				15
			],
			"name":"Object009",
			"rotation":[
				-0.3312903940677643,
				-0.6246973276138306,
				-0.6246972680091858,
				0.3312903940677643
			],
			"translation":[
				47.082801818847656,
				24.32367706298828,
				34.00876998901367
			]
		},
		{
			"name":"Plane001",
			"translation":[
				60,
				12.301385879516602,
				115
			]
		},
		{
			"children":[
				0,
				1,
				2,
				3,
				4,
				10,
				11,
				12,
				13,
				14,
				16,
				17
			],
			"name":"RootNode"
		},
		{
			"children":[
				18
			],
			"name":"c8933098513a4241a3b3085b4472cbbc.fbx",
			"rotation":[
				0.70710688829422,
				0,
				0,
				0.7071066498756409
			]
		},
		{
			"children":[
				19
			],
			"name":"Sketchfab_model",
			"rotation":[
				-0.70710688829422,
				0,
				0,
				0.7071066498756409
			]
		}
	],
	"materials":[
		{
			"doubleSided":true,
			"name":"Shiny_Metal",
			"pbrMetallicRoughness":{}
		},
		{
			"doubleSided":true,
			"name":"Material_73",
			"pbrMetallicRoughness":{}
		},
		{
			"doubleSided":true,
			"name":"Plane001__0",
			"pbrMetallicRoughness":{}
		},
		{
			"doubleSided":true,
			"name":"Purple",
			"pbrMetallicRoughness":{}
		},
		{
			"alphaMode":"BLEND",
			"doubleSided":true,
			"name":"Material_50",
			"pbrMetallicRoughness":{}
		}
	],
	"meshes":[
		{
			"name":"Object009_Shiny Metal_0",
			"primitives":[
				{
					"attributes":{
						"POSITION":0,
						"TEXCOORD_0":1,
						"NORMAL":2
					},
					"indices":3,
					"material":0
				},
				{
					"attributes":{
						"POSITION":4,
						"TEXCOORD_0":5,
						"NORMAL":6
					},
					"indices":7,
					"material":1
				},
				{
					"attributes":{
						"POSITION":8,
						"TEXCOORD_0":9,
						"NORMAL":10
					},
					"indices":11,
					"material":2
				},
				{
					"attributes":{
						"POSITION":12,
						"TEXCOORD_0":13,
						"NORMAL":14
					},
					"indices":15,
					"material":3
				},
				{
					"attributes":{
						"POSITION":16,
						"TEXCOORD_0":17,
						"NORMAL":18
					},
					"indices":19,
					"material":4
				}
			]
		}
	],
	"accessors":[
		{
			"bufferView":0,
			"componentType":5126,
			"count":292,
			"max":[
				119.63504791259766,
				75.21650695800781,
				160
			],
			"min":[
				-131.5862274169922,
				-189.08212280273438,
				-9.071585373021662e-05
			],
			"type":"VEC3"
		},
		{
			"bufferView":1,
			"componentType":5126,
			"count":292,
			"type":"VEC2"
		},
		{
			"bufferView":2,
			"componentType":5126,
			"count":292,
			"type":"VEC3"
		},
		{
			"bufferView":3,
			"componentType":5123,
			"count":708,
			"type":"SCALAR"
		},
		{
			"bufferView":4,
			"componentType":5126,
			"count":100,
			"max":[
				112.91485595703125,
				68.09625244140625,
				165.40248107910156
			],
			"min":[
				-124.51239013671875,
				-181.56277465820312,
				-23.630077362060547
			],
			"type":"VEC3"
		},
		{
			"bufferView":5,
			"componentType":5126,
			"count":100,
			"type":"VEC2"
		},
		{
			"bufferView":6,
			"componentType":5126,
			"count":100,
			"type":"VEC3"
		},
		{
			"bufferView":7,
			"componentType":5123,
			"count":252,
			"type":"SCALAR"
		},
		{
			"bufferView":8,
			"componentType":5126,
			"count":844,
			"max":[
				86.87870788574219,
				95.42627716064453,
				3.632112503051758
			],
			"min":[
				33.54944610595703,
				17.39110565185547,
				-23.924297332763672
			],
			"type":"VEC3"
		},
		{
			"bufferView":9,
			"componentType":5126,
			"count":844,
			"type":"VEC2"
		},
		{
			"bufferView":10,
			"componentType":5126,
			"count":844,
			"type":"VEC3"
		},
		{
			"bufferView":11,
			"componentType":5123,
			"count":1992,
			"type":"SCALAR"
		},
		{
			"bufferView":12,
			"componentType":5126,
			"count":3178,
			"max":[
				88.21408081054688,
				41.63779830932617,
				165.63621520996094
			],
			"min":[
				-99.2291259765625,
				-157.8914031982422,
				-23.62507438659668
			],
			"type":"VEC3"
		},
		{
			"bufferView":13,
			"componentType":5126,
			"count":3178,
			"type":"VEC2"
		},
		{
			"bufferView":14,
			"componentType":5126,
			"count":3178,
			"type":"VEC3"
		},
		{
			"bufferView":15,
			"componentType":5123,
			"count":6606,
			"type":"SCALAR"
		},
		{
			"bufferView":16,
			"componentType":5126,
			"count":1473,
			"max":[
				87.38927459716797,
				40.65945816040039,
				165.63621520996094
			],
			"min":[
				-98.35160827636719,
				-156.8937225341797,
				-23.630077362060547
			],
			"type":"VEC3"
		},
		{
			"bufferView":17,
			"componentType":5126,
			"count":1473,
			"type":"VEC2"
		},
		{
			"bufferView":18,
			"componentType":5126,
			"count":1473,
			"type":"VEC3"
		},
		{
			"bufferView":19,
			"componentType":5123,
			"count":1908,
			"type":"SCALAR"
		}
	],
	"bufferViews":[
		{
			"buffer":0,
			"byteLength":3504,
			"byteOffset":0,
			"target":34962
		},
		{
			"buffer":0,
			"byteLength":2336,
			"byteOffset":3504,
			"target":34962
		},
		{
			"buffer":0,
			"byteLength":3504,
			"byteOffset":5840,
			"target":34962
		},
		{
			"buffer":0,
			"byteLength":1416,
			"byteOffset":9344,
			"target":34963
		},
		{
			"buffer":0,
			"byteLength":1200,
			"byteOffset":10760,
			"target":34962
		},
		{
			"buffer":0,
			"byteLength":800,
			"byteOffset":11960,
			"target":34962
		},
		{
			"buffer":0,
			"byteLength":1200,
			"byteOffset":12760,
			"target":34962
		},
		{
			"buffer":0,
			"byteLength":504,
			"byteOffset":13960,
			"target":34963
		},
		{
			"buffer":0,
			"byteLength":10128,
			"byteOffset":14464,
			"target":34962
		},
		{
			"buffer":0,
			"byteLength":6752,
			"byteOffset":24592,
			"target":34962
		},
		{
			"buffer":0,
			"byteLength":10128,
			"byteOffset":31344,
			"target":34962
		},
		{
			"buffer":0,
			"byteLength":3984,
			"byteOffset":41472,
			"target":34963
		},
		{
			"buffer":0,
			"byteLength":38136,
			"byteOffset":45456,
			"target":34962
		},
		{
			"buffer":0,
			"byteLength":25424,
			"byteOffset":83592,
			"target":34962
		},
		{
			"buffer":0,
			"byteLength":38136,
			"byteOffset":109016,
			"target":34962
		},
		{
			"buffer":0,
			"byteLength":13212,
			"byteOffset":147152,
			"target":34963
		},
		{
			"buffer":0,
			"byteLength":17676,
			"byteOffset":160364,
			"target":34962
		},
		{
			"buffer":0,
			"byteLength":11784,
			"byteOffset":178040,
			"target":34962
		},
		{
			"buffer":0,
			"byteLength":17676,
			"byteOffset":189824,
			"target":34962
		},
		{
			"buffer":0,
			"byteLength":3816,
			"byteOffset":207500,
			"target":34963
		}
	],
	"buffers":[
		{
			"byteLength":211316,
			"uri":"data:application/octet-stream;base64,"
		}
	]
}
