{
	"asset":{
		"generator":"Khronos glTF Blender I/O v3.5.30",
		"version":"2.0"
	},
	"scene":0,
	"scenes":[
		{
			"name":"Scene",
			"nodes":[
				0
			]
		}
	],
	"nodes":[
		{
			"mesh":0,
			"name":"CityHall"
		}
	],
	"materials":[
		{
			"doubleSided":true,
			"name":"StormontMat",
			"pbrMetallicRoughness":{
				"baseColorTexture":{
					"index":0
				},
				"metallicFactor":0,
				"roughnessFactor":0.5
			}
		}
	],
	"meshes":[
		{
			"name":"Sketchup.001",
			"primitives":[
				{
					"attributes":{
						"POSITION":0,
						"TEXCOORD_0":1,
						"NORMAL":2
					},
					"indices":3,
					"material":0
				}
			]
		}
	],
	"textures":[
		{
			"sampler":0,
			"source":0
		}
	],
	"images":[
		{
			"bufferView":4,
			"mimeType":"image/png",
			"name":"Tex"
		}
	],
	"accessors":[
		{
			"bufferView":0,
			"componentType":5126,
			"count":995,
			"max":[
				2.343454599380493,
				1.406510353088379,
				1.2100880146026611
			],
			"min":[
				-2.300065279006958,
				-3.961891081871727e-07,
				-1.1123608350753784
			],
			"type":"VEC3"
		},
		{
			"bufferView":1,
			"componentType":5126,
			"count":995,
			"type":"VEC2"
		},
		{
			"bufferView":2,
			"componentType":5126,
			"count":995,
			"type":"VEC3"
		},
		{
			"bufferView":3,
			"componentType":5123,
			"count":1926,
			"type":"SCALAR"
		}
	],
	"bufferViews":[
		{
			"buffer":0,
			"byteLength":11940,
			"byteOffset":0,
			"target":34962
		},
		{
			"buffer":0,
			"byteLength":7960,
			"byteOffset":11940,
			"target":34962
		},
		{
			"buffer":0,
			"byteLength":11940,
			"byteOffset":19900,
			"target":34962
		},
		{
			"buffer":0,
			"byteLength":3852,
			"byteOffset":31840,
			"target":34963
		},
		{
			"buffer":0,
			"byteLength":1143579,
			"byteOffset":35692
		}
	],
	"samplers":[
		{
			"magFilter":9729,
			"minFilter":9987
		}
	],
	"buffers":[
		{
			"byteLength":1179272,
			"uri":"data:application/octet-stream;base64,"
		}
	]
}
