{
	"asset":{
		"generator":"Khronos glTF Blender I/O v3.5.30",
		"version":"2.0"
	},
	"scene":0,
	"scenes":[
		{
			"name":"Scene",
			"nodes":[
				0
			]
		}
	],
	"nodes":[
		{
			"mesh":0,
			"name":"Export"
		}
	],
	"materials":[
		{
			"doubleSided":true,
			"name":"CityHallMaterial",
			"pbrMetallicRoughness":{
				"baseColorTexture":{
					"index":0
				},
				"metallicFactor":0,
				"roughnessFactor":0.5
			}
		}
	],
	"meshes":[
		{
			"name":"Plane.018",
			"primitives":[
				{
					"attributes":{
						"POSITION":0,
						"TEXCOORD_0":1,
						"NORMAL":2
					},
					"indices":3,
					"material":0
				}
			]
		}
	],
	"textures":[
		{
			"sampler":0,
			"source":0
		}
	],
	"images":[
		{
			"bufferView":4,
			"mimeType":"image/png",
			"name":"CityHallTexture"
		}
	],
	"accessors":[
		{
			"bufferView":0,
			"componentType":5126,
			"count":2955,
			"max":[
				1.0005486011505127,
				1.0723880529403687,
				1.061073899269104
			],
			"min":[
				-0.9789819121360779,
				-0.005949515849351883,
				-0.7698052525520325
			],
			"type":"VEC3"
		},
		{
			"bufferView":1,
			"componentType":5126,
			"count":2955,
			"type":"VEC2"
		},
		{
			"bufferView":2,
			"componentType":5126,
			"count":2955,
			"type":"VEC3"
		},
		{
			"bufferView":3,
			"componentType":5123,
			"count":6921,
			"type":"SCALAR"
		}
	],
	"bufferViews":[
		{
			"buffer":0,
			"byteLength":35460,
			"byteOffset":0,
			"target":34962
		},
		{
			"buffer":0,
			"byteLength":23640,
			"byteOffset":35460,
			"target":34962
		},
		{
			"buffer":0,
			"byteLength":35460,
			"byteOffset":59100,
			"target":34962
		},
		{
			"buffer":0,
			"byteLength":13842,
			"byteOffset":94560,
			"target":34963
		},
		{
			"buffer":0,
			"byteLength":1499360,
			"byteOffset":108404
		}
	],
	"samplers":[
		{
			"magFilter":9729,
			"minFilter":9987
		}
	],
	"buffers":[
		{
			"byteLength":1607764,
			"uri":"data:application/octet-stream;base64,"
		}
	]
}
