{
	"asset":{
		"generator":"Khronos glTF Blender I/O v3.5.30",
		"version":"2.0"
	},
	"scene":0,
	"scenes":[
		{
			"name":"Scene",
			"nodes":[
				0
			]
		}
	],
	"nodes":[
		{
			"mesh":0,
			"name":"Cube.001"
		}
	],
	"materials":[
		{
			"doubleSided":true,
			"name":"Material.001",
			"pbrMetallicRoughness":{
				"baseColorFactor":[
					0.5070683360099792,
					0.49354666471481323,
					0.00781492330133915,
					1
				],
				"metallicFactor":0,
				"roughnessFactor":0.5
			}
		},
		{
			"doubleSided":true,
			"name":"Red",
			"pbrMetallicRoughness":{
				"baseColorFactor":[
					0.35884034633636475,
					0.008890233002603054,
					0.011414928361773491,
					1
				],
				"metallicFactor":0,
				"roughnessFactor":0.5
			}
		},
		{
			"doubleSided":true,
			"name":"Material.002",
			"pbrMetallicRoughness":{
				"baseColorFactor":[
					0.013410423882305622,
					0.013410423882305622,
					0.013410423882305622,
					1
				],
				"metallicFactor":0
			}
		}
	],
	"meshes":[
		{
			"name":"Cube.001",
			"primitives":[
				{
					"attributes":{
						"POSITION":0,
						"TEXCOORD_0":1,
						"NORMAL":2
					},
					"indices":3,
					"material":0
				},
				{
					"attributes":{
						"POSITION":4,
						"TEXCOORD_0":5,
						"NORMAL":6
					},
					"indices":7,
					"material":1
				},
				{
					"attributes":{
						"POSITION":8,
						"TEXCOORD_0":9,
						"NORMAL":10
					},
					"indices":11,
					"material":2
				}
			]
		}
	],
	"accessors":[
		{
			"bufferView":0,
			"componentType":5126,
			"count":1747,
			"max":[
				2.1944963932037354,
				2.9303207397460938,
				3.10684871673584
			],
			"min":[
				-2.166597843170166,
				-0.002316033001989126,
				-3.106868028640747
			],
			"type":"VEC3"
		},
		{
			"bufferView":1,
			"componentType":5126,
			"count":1747,
			"type":"VEC2"
		},
		{
			"bufferView":2,
			"componentType":5126,
			"count":1747,
			"type":"VEC3"
		},
		{
			"bufferView":3,
			"componentType":5123,
			"count":7512,
			"type":"SCALAR"
		},
		{
			"bufferView":4,
			"componentType":5126,
			"count":78,
			"max":[
				1.9434709548950195,
				3.034615993499756,
				2.845237970352173
			],
			"min":[
				1.7650258541107178,
				2.9259848594665527,
				-2.8452563285827637
			],
			"type":"VEC3"
		},
		{
			"bufferView":5,
			"componentType":5126,
			"count":78,
			"type":"VEC2"
		},
		{
			"bufferView":6,
			"componentType":5126,
			"count":78,
			"type":"VEC3"
		},
		{
			"bufferView":7,
			"componentType":5123,
			"count":288,
			"type":"SCALAR"
		},
		{
			"bufferView":8,
			"componentType":5126,
			"count":1784,
			"max":[
				0.4115462303161621,
				2.842956781387329,
				2.8013134002685547
			],
			"min":[
				-0.44909703731536865,
				2.539858102798462,
				-2.80132794380188
			],
			"type":"VEC3"
		},
		{
			"bufferView":9,
			"componentType":5126,
			"count":1784,
			"type":"VEC2"
		},
		{
			"bufferView":10,
			"componentType":5126,
			"count":1784,
			"type":"VEC3"
		},
		{
			"bufferView":11,
			"componentType":5123,
			"count":10656,
			"type":"SCALAR"
		}
	],
	"bufferViews":[
		{
			"buffer":0,
			"byteLength":20964,
			"byteOffset":0,
			"target":34962
		},
		{
			"buffer":0,
			"byteLength":13976,
			"byteOffset":20964,
			"target":34962
		},
		{
			"buffer":0,
			"byteLength":20964,
			"byteOffset":34940,
			"target":34962
		},
		{
			"buffer":0,
			"byteLength":15024,
			"byteOffset":55904,
			"target":34963
		},
		{
			"buffer":0,
			"byteLength":936,
			"byteOffset":70928,
			"target":34962
		},
		{
			"buffer":0,
			"byteLength":624,
			"byteOffset":71864,
			"target":34962
		},
		{
			"buffer":0,
			"byteLength":936,
			"byteOffset":72488,
			"target":34962
		},
		{
			"buffer":0,
			"byteLength":576,
			"byteOffset":73424,
			"target":34963
		},
		{
			"buffer":0,
			"byteLength":21408,
			"byteOffset":74000,
			"target":34962
		},
		{
			"buffer":0,
			"byteLength":14272,
			"byteOffset":95408,
			"target":34962
		},
		{
			"buffer":0,
			"byteLength":21408,
			"byteOffset":109680,
			"target":34962
		},
		{
			"buffer":0,
			"byteLength":21312,
			"byteOffset":131088,
			"target":34963
		}
	],
	"buffers":[
		{
			"byteLength":152400,
			"uri":"data:application/octet-stream;base64,"
		}
	]
}
