{
	"asset":{
		"generator":"Khronos glTF Blender I/O v3.5.30",
		"version":"2.0"
	},
	"scene":0,
	"scenes":[
		{
			"name":"Scene",
			"nodes":[
				0
			]
		}
	],
	"nodes":[
		{
			"mesh":0,
			"name":"Object009_Shiny Metal_0"
		}
	],
	"materials":[
		{
			"name":"Shiny_Metal",
			"pbrMetallicRoughness":{
				"baseColorTexture":{
					"index":0
				}
			}
		},
		{
			"doubleSided":true,
			"name":"Material_73",
			"pbrMetallicRoughness":{
				"baseColorFactor":[
					0.08305653184652328,
					0.06962274760007858,
					0.08391694724559784,
					1
				]
			}
		},
		{
			"doubleSided":true,
			"name":"Plane001__0",
			"pbrMetallicRoughness":{
				"baseColorTexture":{
					"index":1
				}
			}
		},
		{
			"doubleSided":true,
			"name":"Purple",
			"pbrMetallicRoughness":{
				"baseColorFactor":[
					0.12503914535045624,
					0,
					0.02427438460290432,
					1
				]
			}
		},
		{
			"alphaMode":"BLEND",
			"doubleSided":true,
			"name":"Material_50",
			"pbrMetallicRoughness":{
				"baseColorFactor":[
					0.04698682576417923,
					0.04698682576417923,
					0.04698682576417923,
					1
				]
			}
		}
	],
	"meshes":[
		{
			"name":"Object009_Shiny Metal_0",
			"primitives":[
				{
					"attributes":{
						"POSITION":0,
						"TEXCOORD_0":1,
						"NORMAL":2
					},
					"indices":3,
					"material":0
				},
				{
					"attributes":{
						"POSITION":4,
						"TEXCOORD_0":5,
						"NORMAL":6
					},
					"indices":7,
					"material":1
				},
				{
					"attributes":{
						"POSITION":8,
						"TEXCOORD_0":9,
						"NORMAL":10
					},
					"indices":11,
					"material":2
				},
				{
					"attributes":{
						"POSITION":12,
						"TEXCOORD_0":13,
						"NORMAL":14
					},
					"indices":15,
					"material":3
				},
				{
					"attributes":{
						"POSITION":16,
						"TEXCOORD_0":17,
						"NORMAL":18
					},
					"indices":19,
					"material":4
				}
			]
		}
	],
	"textures":[
		{
			"sampler":0,
			"source":0
		},
		{
			"sampler":0,
			"source":1
		}
	],
	"images":[
		{
			"bufferView":4,
			"mimeType":"image/jpeg",
			"name":"Shiny_Metal_diffuse"
		},
		{
			"bufferView":13,
			"mimeType":"image/jpeg",
			"name":"Plane001__0_diffuse"
		}
	],
	"accessors":[
		{
			"bufferView":0,
			"componentType":5126,
			"count":141,
			"max":[
				1.235647439956665,
				2.033773183822632,
				1.1400619745254517
			],
			"min":[
				-1.3651529550552368,
				0.2568965554237366,
				-1.1563249826431274
			],
			"type":"VEC3"
		},
		{
			"bufferView":1,
			"componentType":5126,
			"count":141,
			"type":"VEC2"
		},
		{
			"bufferView":2,
			"componentType":5126,
			"count":141,
			"type":"VEC3"
		},
		{
			"bufferView":3,
			"componentType":5123,
			"count":288,
			"type":"SCALAR"
		},
		{
			"bufferView":5,
			"componentType":5126,
			"count":52,
			"max":[
				1.1672565937042236,
				2.033773183822632,
				1.082495093345642
			],
			"min":[
				-1.2821823358535767,
				0.2568965554237366,
				-1.092786431312561
			],
			"type":"VEC3"
		},
		{
			"bufferView":6,
			"componentType":5126,
			"count":52,
			"type":"VEC2"
		},
		{
			"bufferView":7,
			"componentType":5126,
			"count":52,
			"type":"VEC3"
		},
		{
			"bufferView":8,
			"componentType":5123,
			"count":78,
			"type":"SCALAR"
		},
		{
			"bufferView":9,
			"componentType":5126,
			"count":536,
			"max":[
				1.4212312698364258,
				0.2960188686847687,
				1.47171950340271
			],
			"min":[
				0.2631106972694397,
				-0.0007909755222499371,
				1.352850317955017
			],
			"type":"VEC3"
		},
		{
			"bufferView":10,
			"componentType":5126,
			"count":536,
			"type":"VEC2"
		},
		{
			"bufferView":11,
			"componentType":5126,
			"count":536,
			"type":"VEC3"
		},
		{
			"bufferView":12,
			"componentType":5123,
			"count":1992,
			"type":"SCALAR"
		},
		{
			"bufferView":14,
			"componentType":5126,
			"count":933,
			"max":[
				0.951980710029602,
				0.2569384276866913,
				0.851002037525177
			],
			"min":[
				-1.0374201536178589,
				0.0024320557713508606,
				-0.854642927646637
			],
			"type":"VEC3"
		},
		{
			"bufferView":15,
			"componentType":5126,
			"count":933,
			"type":"VEC2"
		},
		{
			"bufferView":16,
			"componentType":5126,
			"count":933,
			"type":"VEC3"
		},
		{
			"bufferView":17,
			"componentType":5123,
			"count":1320,
			"type":"SCALAR"
		},
		{
			"bufferView":18,
			"componentType":5126,
			"count":218,
			"max":[
				0.9435116052627563,
				0.25832223892211914,
				0.8439778685569763
			],
			"min":[
				-1.0259943008422852,
				0.0024320557713508606,
				-0.8474547863006592
			],
			"type":"VEC3"
		},
		{
			"bufferView":19,
			"componentType":5126,
			"count":218,
			"type":"VEC2"
		},
		{
			"bufferView":20,
			"componentType":5126,
			"count":218,
			"type":"VEC3"
		},
		{
			"bufferView":21,
			"componentType":5123,
			"count":258,
			"type":"SCALAR"
		}
	],
	"bufferViews":[
		{
			"buffer":0,
			"byteLength":1692,
			"byteOffset":0,
			"target":34962
		},
		{
			"buffer":0,
			"byteLength":1128,
			"byteOffset":1692,
			"target":34962
		},
		{
			"buffer":0,
			"byteLength":1692,
			"byteOffset":2820,
			"target":34962
		},
		{
			"buffer":0,
			"byteLength":576,
			"byteOffset":4512,
			"target":34963
		},
		{
			"buffer":0,
			"byteLength":302564,
			"byteOffset":5088
		},
		{
			"buffer":0,
			"byteLength":624,
			"byteOffset":307652,
			"target":34962
		},
		{
			"buffer":0,
			"byteLength":416,
			"byteOffset":308276,
			"target":34962
		},
		{
			"buffer":0,
			"byteLength":624,
			"byteOffset":308692,
			"target":34962
		},
		{
			"buffer":0,
			"byteLength":156,
			"byteOffset":309316,
			"target":34963
		},
		{
			"buffer":0,
			"byteLength":6432,
			"byteOffset":309472,
			"target":34962
		},
		{
			"buffer":0,
			"byteLength":4288,
			"byteOffset":315904,
			"target":34962
		},
		{
			"buffer":0,
			"byteLength":6432,
			"byteOffset":320192,
			"target":34962
		},
		{
			"buffer":0,
			"byteLength":3984,
			"byteOffset":326624,
			"target":34963
		},
		{
			"buffer":0,
			"byteLength":416546,
			"byteOffset":330608
		},
		{
			"buffer":0,
			"byteLength":11196,
			"byteOffset":747156,
			"target":34962
		},
		{
			"buffer":0,
			"byteLength":7464,
			"byteOffset":758352,
			"target":34962
		},
		{
			"buffer":0,
			"byteLength":11196,
			"byteOffset":765816,
			"target":34962
		},
		{
			"buffer":0,
			"byteLength":2640,
			"byteOffset":777012,
			"target":34963
		},
		{
			"buffer":0,
			"byteLength":2616,
			"byteOffset":779652,
			"target":34962
		},
		{
			"buffer":0,
			"byteLength":1744,
			"byteOffset":782268,
			"target":34962
		},
		{
			"buffer":0,
			"byteLength":2616,
			"byteOffset":784012,
			"target":34962
		},
		{
			"buffer":0,
			"byteLength":516,
			"byteOffset":786628,
			"target":34963
		}
	],
	"samplers":[
		{
			"magFilter":9729,
			"minFilter":9987
		}
	],
	"buffers":[
		{
			"byteLength":787144,
			"uri":"data:application/octet-stream;base64,"
		}
	]
}
